# xmcd CD database file
#
# Track frame offsets:
#	150
#	15537
#	29920
#	46838
#	63363
#	81802
#	98982
#	115300
#	131963
#	149269
#	165883
#	181942
#	198574
#
# Disc length: 2962 seconds
#
# Revision: 0
# Processed by: cddbd v1.5.2PL0 Copyright (c) Steve Scherf et al.
# Submitted via: CDex 1.51
#
DISCID=b20b900d
DTITLE=Gangstagrass - Broken Hearts And Stolen Money
DYEAR=2014
DGENRE=Country
TTITLE0=Quickdraw featuring Dolio The Sleuth and R-SON
TTITLE1=Get Down Get Up featuring T.O.N.E-z (Edited)
TTITLE2=Banks Of The Ohio featuring Alexa Dirks
TTITLE3=Hand Me The Money featuring Smif N Wessun (edited)
TTITLE4=Keep Talking featuring Dolio The Sleuth (edited)
TTITLE5=Mountaintop featuring Tomasia and Brandi Hart
TTITLE6=All For One featuring Dolio The Sleuth and R-SON
TTITLE7=O Death featuring Brandi Hart, Liquid, and R-SON
TTITLE8=Rainstorm In Kentucky featuring Smif N Wessun, Dolio, and R-SON
TTITLE9=Peaches featuring Chrome Cowgirl and R-SON (edited)
TTITLE10=Two Yards featuring R-SON and Dolio The Sleuth (edited)
TTITLE11=Long Grey River featuring Dan Whitener and R-SON (edited)
TTITLE12=Will The Circle Be Unbroken feat Landry McMeans, Dolio, R-SON
EXTD=YEAR: 2014
EXTT0=
EXTT1=
EXTT2=
EXTT3=
EXTT4=
EXTT5=
EXTT6=
EXTT7=
EXTT8=
EXTT9=
EXTT10=
EXTT11=
EXTT12=
PLAYORDER=
